<mxfile host="app.diagrams.net" modified="2023-05-16T19:05:41.307Z" agent="Mozilla/5.0 (Macintosh; Intel Mac OS X 10_15_7) AppleWebKit/537.36 (KHTML, like Gecko) Chrome/111.0.0.0 Safari/537.36" version="21.3.2" etag="afnEswK0ABYn4nGZieqn" type="github">
  <diagram name="Сторінка-1" id="Wg4ca6X46Rn_mWy7YTPs">
    <mxGraphModel>
      <root>
        <mxCell id="0" />
        <mxCell id="1" parent="0" />
      </root>
    </mxGraphModel>
  </diagram>
</mxfile>
